# xmcd CD database file
#
# Track frame offsets:
#	150
#	11850
#	30787
#	47050
#	59312
#	71512
#	83025
#	98925
#	111537
#	130487
#	142050
#	155187
#	170887
#	183400
#	200650
#	211600
#	226825
#
# Disc length: 3243 seconds
#
# Revision: 0
# Processed by: cddbd v1.4PL0 Copyright (c) Steve Scherf et al.
# Submitted via: Feurio! 1.64 - http://www.feurio.com
#
DISCID=f70ca911
DTITLE=Various Artist - Country Time - CD1
DYEAR=2000
DGENRE=Country
TTITLE0=Johnny Cash - Ring Of Fire
TTITLE1=Bobby Bare - Tequila Sheila
TTITLE2=The Charlie Daniels Band - The Devil Went Down To Georgia
TTITLE3=Charlie Rich - The Most Beautiful Girl
TTITLE4=Dolly Parton - If You Need Me
TTITLE5=Gene Autry - Don't Fence Me In
TTITLE6=Willie Nelson - Always On My Mind
TTITLE7=Johnny Horton - North To Alaska
TTITLE8=Kris Kristofferson - Me And Bobby Mcgee
TTITLE9=Lacy J. Dalton - Hard Times
TTITLE10=Merle Haggard - To All The Girls I Loved Before
TTITLE11=Larry Gatlin and The Gatlin Brothers - Love Is Just A Game
TTITLE12=Poco - Go And Say Goodbye
TTITLE13=Ricky Skaggs - Country Boy
TTITLE14=Roger Miller - King Of The Road
TTITLE15=Waylon Jennings - What Bothers Me Most
TTITLE16=Ricky Van Shelton - Backroads
EXTD=
EXTT0=
EXTT1=
EXTT2=
EXTT3=
EXTT4=
EXTT5=
EXTT6=
EXTT7=
EXTT8=
EXTT9=
EXTT10=
EXTT11=
EXTT12=
EXTT13=
EXTT14=
EXTT15=
EXTT16=
PLAYORDER=
